<?xml version="1.0" standalone="no"?>
<!DOCTYPE svg PUBLIC "-//W3C//DTD SVG 20010904//EN"
 "http://www.w3.org/TR/2001/REC-SVG-20010904/DTD/svg10.dtd">
<svg version="1.0" xmlns="http://www.w3.org/2000/svg"
 width="500.000000pt" height="500.000000pt" viewBox="0 0 500.000000 500.000000"
 preserveAspectRatio="xMidYMid meet">
<metadata>
Created by potrace 1.14, written by Peter Selinger 2001-2017
</metadata>
<g transform="translate(0.000000,500.000000) scale(0.100000,-0.100000)"
fill="#000000" stroke="none">
<path d="M2398 4215 c-2 -1 -37 -5 -78 -9 -99 -8 -127 -14 -269 -50 -436 -113
-828 -403 -1071 -794 -97 -157 -165 -316 -213 -504 -45 -170 -52 -232 -51
-453 1 -186 3 -213 25 -325 77 -400 287 -767 589 -1028 80 -69 204 -162 217
-162 3 0 24 -13 48 -29 154 -104 474 -215 690 -239 81 -9 395 -8 470 1 232 30
475 116 690 244 345 206 628 549 763 923 56 154 74 229 96 405 12 96 13 387 2
450 -3 17 -8 44 -11 60 -3 17 -7 41 -10 55 -3 14 -8 39 -10 55 -24 137 -123
376 -223 540 -282 464 -781 785 -1322 851 -53 6 -327 14 -332 9z"/>
</g>
</svg>
